<svg width="12" height="12" viewBox="0 0 12 12" fill="none" xmlns="http://www.w3.org/2000/svg">
<path d="M5.83369 0C6.08682 0 6.29609 0.188007 6.32922 0.432053L6.33382 0.4999L6.33462 5.33333H11.17C11.4462 5.33333 11.67 5.5572 11.67 5.83333C11.67 6.08647 11.4819 6.29567 11.2379 6.3288L11.17 6.33333H6.33462L6.33595 11.1661C6.33602 11.4422 6.11222 11.6662 5.83609 11.6662C5.58295 11.6662 5.37369 11.4782 5.34055 11.2341L5.33595 11.1663L5.33462 6.33333H0.501953C0.225806 6.33333 0.00195312 6.10947 0.00195312 5.83333C0.00195312 5.5802 0.190053 5.371 0.434107 5.33787L0.501953 5.33333H5.33462L5.33382 0.5001C5.33375 0.22396 5.55755 0 5.83369 0Z" fill="white"/>
</svg>
