<svg width="12" height="12" viewBox="0 0 12 12" fill="none" xmlns="http://www.w3.org/2000/svg">
<path d="M9.83333 0C11.0299 0 12 0.970047 12 2.16667V9.83333C12 11.0299 11.0299 12 9.83333 12H2.16667C0.970047 12 0 11.0299 0 9.83333V2.16667C0 0.970047 0.970047 0 2.16667 0H9.83333ZM11 3.66667H1V9.83333C1 10.4777 1.52233 11 2.16667 11H9.83333C10.4777 11 11 10.4777 11 9.83333V3.66667ZM9.83333 1H2.16667C1.52233 1 1 1.52233 1 2.16667V2.66667H11V2.16667C11 1.52233 10.4777 1 9.83333 1Z" fill="#667085"/>
</svg>
