<svg width="20" height="20" viewBox="0 0 20 20" fill="none" xmlns="http://www.w3.org/2000/svg">
<path d="M3.66453 3.79491L3.72505 3.72481C3.94694 3.50291 4.29416 3.48275 4.53883 3.66429L4.60893 3.72481L10.0003 9.11592L15.3917 3.72481C15.6358 3.48073 16.0315 3.48073 16.2756 3.72481C16.5197 3.96888 16.5197 4.36462 16.2756 4.60869L10.8845 10.0001L16.2756 15.3915C16.4975 15.6133 16.5177 15.9606 16.3361 16.2052L16.2756 16.2753C16.0537 16.4972 15.7065 16.5174 15.4618 16.3358L15.3917 16.2753L10.0003 10.8842L4.60893 16.2753C4.36486 16.5194 3.96913 16.5194 3.72505 16.2753C3.48098 16.0312 3.48098 15.6356 3.72505 15.3915L9.11616 10.0001L3.72505 4.60869C3.50316 4.3868 3.48299 4.03958 3.66453 3.79491Z" fill="#667085"/>
</svg>
