<svg width="12" height="13" viewBox="0 0 12 13" fill="none" xmlns="http://www.w3.org/2000/svg">
<path d="M8.53287 0C9.5266 0 10.3929 0.675954 10.6345 1.63983L10.8913 2.66667H11.5C11.7531 2.66667 11.9623 2.85477 11.9955 3.09882L12 3.16667C12 3.4198 11.8119 3.62899 11.5679 3.6621L11.5 3.66667H11.1427L11.2813 4.21767C11.7139 4.48085 12.0027 4.95667 12.0027 5.5V11.1645C12.0027 11.8089 11.4804 12.3312 10.8361 12.3312H9.83333C9.189 12.3312 8.66667 11.8089 8.66667 11.1645L8.666 10.3333H3.336L3.33605 11.1645C3.33605 11.8089 2.81372 12.3312 2.16939 12.3312H1.16667C0.522333 12.3312 0 11.8089 0 11.1645V5.5C0 4.9568 0.288773 4.48099 0.72118 4.21777L0.859333 3.66667H0.5C0.246867 3.66667 0.0376733 3.47857 0.00456667 3.23451L0 3.16667C0 2.91353 0.1881 2.70434 0.432153 2.67123L0.5 2.66667H1.10867L1.36599 1.64117C1.60712 0.676647 2.47375 0 3.46796 0H8.53287ZM2.336 10.3333H0.999333L1 11.1645C1 11.2565 1.07462 11.3312 1.16667 11.3312H2.16939C2.26143 11.3312 2.33605 11.2565 2.33605 11.1645L2.336 10.3333ZM11.0027 10.3333H9.666L9.66667 11.1645C9.66667 11.2565 9.74127 11.3312 9.83333 11.3312H10.8361C10.9281 11.3312 11.0027 11.2565 11.0027 11.1645L11.0027 10.3333ZM10.5027 5H1.5C1.22386 5 1 5.22387 1 5.5V9.33333H11.0027V5.5C11.0027 5.22387 10.7789 5 10.5027 5ZM4.83267 7.33333H7.16713C7.44333 7.33333 7.66713 7.5572 7.66713 7.83333C7.66713 8.08647 7.47907 8.29567 7.235 8.3288L7.16713 8.33333H4.83267C4.55652 8.33333 4.33266 8.10947 4.33266 7.83333C4.33266 7.5802 4.52077 7.371 4.7648 7.33787L4.83267 7.33333ZM9.33333 6C9.70147 6 9.99993 6.29847 9.99993 6.66667C9.99993 7.0348 9.70147 7.33327 9.33333 7.33327C8.96513 7.33327 8.66667 7.0348 8.66667 6.66667C8.66667 6.29847 8.96513 6 9.33333 6ZM2.66665 6C3.03483 6 3.3333 6.29847 3.3333 6.66667C3.3333 7.0348 3.03483 7.33327 2.66665 7.33327C2.29847 7.33327 2 7.0348 2 6.66667C2 6.29847 2.29847 6 2.66665 6ZM8.53287 1H3.46796C2.93261 1 2.46597 1.36435 2.33613 1.88371L1.80705 4H10.1953L9.66453 1.88299C9.53447 1.36397 9.06793 1 8.53287 1Z" fill="#212121"/>
</svg>
