<svg
  width="14"
  height="14"
  viewBox="0 0 14 14"
  fill="none"
  xmlns="http://www.w3.org/2000/svg"
>
<path
    d="M1.33301 6.99992C1.33301 3.87031 3.87006 1.33325 6.99967 1.33325C10.1293 1.33325 12.6663 3.87031 12.6663 6.99992C12.6663 10.1295 10.1293 12.6666 6.99967 12.6666C3.87006 12.6666 1.33301 10.1295 1.33301 6.99992ZM6.99967 0.333252C3.31777 0.333252 0.333008 3.31802 0.333008 6.99992C0.333008 10.6818 3.31777 13.6666 6.99967 13.6666C10.6815 13.6666 13.6663 10.6818 13.6663 6.99992C13.6663 3.31802 10.6815 0.333252 6.99967 0.333252ZM6.99507 3.4321C6.96201 3.18814 6.75267 2.99992 6.49967 2.99992C6.22367 2.99992 5.99967 3.22392 5.99967 3.49992V7.49992L6.00427 7.56772C6.03734 7.81172 6.24667 7.99992 6.49967 7.99992H9.16634L9.23414 7.99532C9.47814 7.96225 9.66634 7.75292 9.66634 7.49992C9.66634 7.22392 9.44234 6.99992 9.16634 6.99992H6.99967V3.49992L6.99507 3.4321Z"
    fill="#319A64"
  />
</svg>
