<svg
  width="14"
  height="10"
  viewBox="0 0 14 10"
  fill="none"
  xmlns="http://www.w3.org/2000/svg"
>
<path
    d="M9.49967 6.66658C9.22354 6.66658 8.99967 6.89045 8.99967 7.16658C8.99967 7.44272 9.22354 7.66658 9.49967 7.66658H11.1663C11.4425 7.66658 11.6663 7.44272 11.6663 7.16658C11.6663 6.89045 11.4425 6.66658 11.1663 6.66658H9.49967ZM0.333008 2.49992C0.333008 1.3033 1.30305 0.333252 2.49967 0.333252H11.4997C12.6963 0.333252 13.6663 1.3033 13.6663 2.49992V7.49992C13.6663 8.69652 12.6963 9.66658 11.4997 9.66658H2.49967C1.30305 9.66658 0.333008 8.69652 0.333008 7.49992V2.49992ZM12.6663 3.33325V2.49992C12.6663 1.85559 12.144 1.33325 11.4997 1.33325H2.49967C1.85534 1.33325 1.33301 1.85559 1.33301 2.49992V3.33325H12.6663ZM1.33301 4.33325V7.49992C1.33301 8.14425 1.85534 8.66658 2.49967 8.66658H11.4997C12.144 8.66658 12.6663 8.14425 12.6663 7.49992V4.33325H1.33301Z"
    fill="#319A64"
  />
</svg>
