<svg width="12" height="8" viewBox="0 0 12 8" fill="none" xmlns="http://www.w3.org/2000/svg">
<path d="M7 6.66667C7.27613 6.66667 7.5 6.89053 7.5 7.16667C7.5 7.4428 7.27613 7.66667 7 7.66667H5C4.72387 7.66667 4.5 7.4428 4.5 7.16667C4.5 6.89053 4.72387 6.66667 5 6.66667H7ZM9 3.33333C9.27613 3.33333 9.5 3.5572 9.5 3.83333C9.5 4.10947 9.27613 4.33333 9 4.33333H3C2.72386 4.33333 2.5 4.10947 2.5 3.83333C2.5 3.5572 2.72386 3.33333 3 3.33333H9ZM11 0C11.2761 0 11.5 0.22386 11.5 0.5C11.5 0.77614 11.2761 1 11 1H1C0.72386 1 0.5 0.77614 0.5 0.5C0.5 0.22386 0.72386 0 1 0H11Z" fill="#212121"/>
</svg>
