<svg width="12" height="14" viewBox="0 0 12 14" fill="none" xmlns="http://www.w3.org/2000/svg">
<path d="M2.00033 0.999919C2.00033 0.631732 1.70185 0.333252 1.33366 0.333252C0.965472 0.333252 0.666992 0.631732 0.666992 0.999919V12.9999C0.666992 13.3681 0.965472 13.6666 1.33366 13.6666C1.70185 13.6666 2.00033 13.3681 2.00033 12.9999V0.999919ZM11.3337 0.999919C11.3337 0.631732 11.0352 0.333252 10.667 0.333252C10.2988 0.333252 10.0003 0.631732 10.0003 0.999919V12.9999C10.0003 13.3681 10.2988 13.6666 10.667 13.6666C11.0352 13.6666 11.3337 13.3681 11.3337 12.9999V0.999919ZM6.66699 0.999919C6.66699 0.631732 6.36853 0.333252 6.00033 0.333252C5.63213 0.333252 5.33366 0.631732 5.33366 0.999919V2.99992C5.33366 3.36811 5.63213 3.66658 6.00033 3.66658C6.36853 3.66658 6.66699 3.36811 6.66699 2.99992V0.999919ZM5.33366 7.99992C5.33366 8.36812 5.63213 8.66658 6.00033 8.66658C6.36853 8.66658 6.66699 8.36812 6.66699 7.99992V5.99992C6.66699 5.63173 6.36853 5.33325 6.00033 5.33325C5.63213 5.33325 5.33366 5.63173 5.33366 5.99992V7.99992ZM5.33366 10.9999C5.33366 10.6317 5.63213 10.3333 6.00033 10.3333C6.36853 10.3333 6.66699 10.6317 6.66699 10.9999V12.9999C6.66699 13.3681 6.36853 13.6666 6.00033 13.6666C5.63213 13.6666 5.33366 13.3681 5.33366 12.9999V10.9999Z" fill="#319A64"/>
</svg>
