<svg
  width="14"
  height="14"
  viewBox="0 0 14 14"
  fill="none"
  xmlns="http://www.w3.org/2000/svg"
>
<path
    d="M13.6663 6.99992V11.6666C13.6663 12.7317 12.8337 13.6024 11.7839 13.6632L11.6663 13.6666H9.66634C9.32447 13.6666 9.04267 13.4093 9.00414 13.0777L8.99967 12.9999V8.99992C8.99967 8.65805 9.25701 8.37625 9.58861 8.33772L9.66634 8.33325H12.6663V6.99992C12.6663 3.87031 10.1293 1.33325 6.99967 1.33325C3.87006 1.33325 1.33301 3.87031 1.33301 6.99992V8.33325H4.33301C4.70119 8.33325 4.99967 8.63172 4.99967 8.99992V12.9999C4.99967 13.3681 4.70119 13.6666 4.33301 13.6666H2.33301C1.22844 13.6666 0.333008 12.7712 0.333008 11.6666V6.99992C0.333008 3.31802 3.31777 0.333252 6.99967 0.333252C10.6815 0.333252 13.6663 3.31802 13.6663 6.99992ZM3.99967 9.33325H1.33301V11.6666C1.33301 12.2189 1.78072 12.6666 2.33301 12.6666H3.99967V9.33325ZM12.6663 9.33325H9.99967V12.6666H11.6663C12.1861 12.6666 12.6133 12.27 12.6617 11.7629L12.6663 11.6666V9.33325Z"
    fill="#319A64"
  />
</svg>
