<svg width="16" height="17" viewBox="0 0 16 17" fill="none" xmlns="http://www.w3.org/2000/svg">
<path d="M7.99974 1.83203C11.6822 1.83203 14.6674 4.81726 14.6674 8.49973C14.6674 12.1822 11.6822 15.1674 7.99974 15.1674C4.31726 15.1674 1.33203 12.1822 1.33203 8.49973C1.33203 4.81726 4.31726 1.83203 7.99974 1.83203ZM7.99974 2.83203C4.86954 2.83203 2.33203 5.36954 2.33203 8.49973C2.33203 11.6299 4.86954 14.1674 7.99974 14.1674C11.1299 14.1674 13.6674 11.6299 13.6674 8.49973C13.6674 5.36954 11.1299 2.83203 7.99974 2.83203ZM7.99727 7.49906C8.2504 7.49893 8.45974 7.68687 8.493 7.93093L8.4976 7.99873L8.5 11.6665C8.5002 11.9426 8.27647 12.1667 8.00034 12.1668C7.74721 12.167 7.53787 11.979 7.5046 11.735L7.5 11.6671L7.4976 7.9994C7.49747 7.72326 7.72114 7.49926 7.99727 7.49906ZM8 5.16724C8.36774 5.16724 8.6658 5.46532 8.6658 5.83302C8.6658 6.20071 8.36774 6.49879 8 6.49879C7.63234 6.49879 7.33427 6.20071 7.33427 5.83302C7.33427 5.46532 7.63234 5.16724 8 5.16724Z" fill="#212121"/>
</svg>
