<svg width="14" height="14" viewBox="0 0 14 14" fill="none" xmlns="http://www.w3.org/2000/svg">
<path d="M8.00807 5.03646C7.82807 5.30033 7.64774 5.54663 7.49034 5.75413C7.24054 6.08348 6.75881 6.08348 6.50901 5.75413C6.34247 5.53457 6.15021 5.27156 5.95987 4.99027C5.86021 4.84291 5.76101 4.69053 5.66634 4.53675C5.29915 3.94037 4.99967 3.32294 4.99967 2.89551C4.99967 1.79094 5.89507 0.666748 6.99967 0.666748C8.10427 0.666748 8.99967 1.79094 8.99967 2.89551C8.99967 3.24614 8.79814 3.72464 8.52301 4.21449C8.36721 4.49189 8.18781 4.77294 8.00807 5.03646ZM7.58047 3.4809C7.83427 3.29953 7.99967 3.00246 7.99967 2.66675C7.99967 2.11446 7.55194 1.66675 6.99967 1.66675C6.44741 1.66675 5.99967 2.11446 5.99967 2.66675C5.99967 3.00246 6.16507 3.29953 6.41887 3.4809C6.58261 3.59789 6.78307 3.66674 6.99967 3.66674C7.21627 3.66674 7.41674 3.59789 7.58047 3.4809ZM3.05144 7.88208L5.50553 5.50666C5.3182 5.23621 5.12675 4.94243 4.95567 4.64715L0.992768 8.48301C0.571081 8.89115 0.333008 9.45295 0.333008 10.0398V12.5001C0.333008 13.3285 1.00458 14.0001 1.83301 14.0001H12.1663C12.9947 14.0001 13.6663 13.3285 13.6663 12.5001V10.0398C13.6663 9.45295 13.4283 8.89115 13.0066 8.48301L9.04367 4.64715C8.87261 4.94243 8.68114 5.23621 8.49381 5.50666L9.88134 6.84975C9.40694 6.90675 8.95921 7.02061 8.53467 7.15901C8.08067 7.30708 7.61241 7.49975 7.17447 7.67988C6.91627 7.78608 6.66867 7.88795 6.44074 7.97381C5.78561 8.22048 5.18889 8.38241 4.58611 8.36181C4.11261 8.34568 3.60861 8.21568 3.05144 7.88208ZM1.68826 9.20155L2.31236 8.59741C3.08403 9.11155 3.82413 9.33641 4.55203 9.36121C5.3534 9.38855 6.09827 9.17128 6.79314 8.90961C7.08521 8.79961 7.35601 8.68768 7.62121 8.57801C8.02374 8.41155 8.41327 8.25048 8.84474 8.10975C9.50574 7.89421 10.1719 7.76408 10.8893 7.82528L12.3111 9.20155C12.5381 9.42135 12.6663 9.72381 12.6663 10.0398V12.5001C12.6663 12.7762 12.4425 13.0001 12.1663 13.0001H1.83301C1.55687 13.0001 1.33301 12.7762 1.33301 12.5001V10.0398C1.33301 9.72381 1.4612 9.42135 1.68826 9.20155Z" fill="#212121"/>
</svg>
