<svg width="12" height="12" viewBox="0 0 12 12" fill="none" xmlns="http://www.w3.org/2000/svg">
<path d="M1 4.66667C1 2.64162 2.64162 1 4.66667 1C6.69173 1 8.33333 2.64162 8.33333 4.66667C8.33333 6.69173 6.69173 8.33333 4.66667 8.33333C2.64162 8.33333 1 6.69173 1 4.66667ZM4.66667 0C2.08934 0 0 2.08934 0 4.66667C0 7.244 2.08934 9.33333 4.66667 9.33333C5.7752 9.33333 6.79347 8.9468 7.59407 8.3012L11.1465 11.8535C11.3417 12.0488 11.6583 12.0488 11.8535 11.8535C12.0488 11.6583 12.0488 11.3417 11.8535 11.1465L8.3012 7.59407C8.9468 6.79347 9.33333 5.7752 9.33333 4.66667C9.33333 2.08934 7.244 0 4.66667 0Z" fill="#212121"/>
</svg>
