<svg
  width="14"
  height="14"
  viewBox="0 0 14 14"
  fill="none"
  xmlns="http://www.w3.org/2000/svg"
>
<path
    d="M7.00813 0.5C7.49747 0.50564 7.98487 0.562173 8.46247 0.668693C8.67093 0.715193 8.82687 0.889007 8.85053 1.10131L8.964 2.11921C9.0154 2.58657 9.41 2.94056 9.8804 2.94105C10.0069 2.94125 10.1319 2.91492 10.2488 2.86322L11.1825 2.45304C11.3767 2.36773 11.6037 2.41424 11.7486 2.56908C12.4234 3.28976 12.9259 4.1541 13.2185 5.09705C13.2815 5.30039 13.2089 5.52135 13.0376 5.64767L12.2099 6.25773C11.9738 6.4312 11.8344 6.70667 11.8344 6.99967C11.8344 7.2926 11.9738 7.56807 12.2105 7.74193L13.0388 8.3522C13.2102 8.47847 13.2829 8.69947 13.2198 8.90287C12.9274 9.84567 12.4251 10.7099 11.7507 11.4307C11.6059 11.5855 11.3792 11.6322 11.185 11.5471L10.2475 11.1363C9.9792 11.0189 9.6712 11.0361 9.41767 11.1827C9.1642 11.3291 8.99553 11.5875 8.96333 11.8785L8.8506 12.8963C8.82733 13.1061 8.6748 13.2788 8.46933 13.3277C7.50373 13.5574 6.49767 13.5574 5.53202 13.3277C5.32661 13.2788 5.17403 13.1061 5.15079 12.8963L5.03824 11.88C5.00518 11.5895 4.83623 11.332 4.58295 11.186C4.32967 11.04 4.02213 11.0229 3.7548 11.1396L2.81705 11.5504C2.62281 11.6355 2.39602 11.5889 2.25119 11.4339C1.57641 10.7123 1.07413 9.847 0.782134 8.9032C0.719241 8.69993 0.791908 8.47907 0.963234 8.35287L1.79212 7.7422C2.02821 7.56873 2.16765 7.29327 2.16765 7.00033C2.16765 6.70733 2.02821 6.43187 1.79181 6.2582L0.963441 5.64857C0.791868 5.5223 0.719134 5.30119 0.782247 5.09772C1.07475 4.15477 1.57729 3.29043 2.25209 2.56975C2.39706 2.41491 2.62396 2.36839 2.81816 2.45371L3.75175 2.86381C4.02037 2.98171 4.3292 2.9639 4.58385 2.81513C4.83739 2.66806 5.00619 2.40948 5.03878 2.11843L5.15216 1.10131C5.17584 0.8889 5.33191 0.715027 5.54053 0.668627C6.01873 0.56228 6.50667 0.505767 7.00813 0.5ZM7.00827 1.49993C6.70553 1.50349 6.40373 1.52962 6.1052 1.57801L6.0326 2.22945C5.96473 2.83579 5.61335 3.37401 5.08695 3.67935C4.55731 3.98878 3.91157 4.02602 3.34972 3.77945L2.75086 3.51637C2.36957 3.97915 2.06609 4.5009 1.85235 5.06112L2.38421 5.45253C2.87675 5.8144 3.16765 6.38913 3.16765 7.00033C3.16765 7.61147 2.87675 8.1862 2.38473 8.54767L1.85203 8.94013C2.06559 9.50133 2.36912 10.0241 2.75067 10.4877L3.35409 10.2234C3.91282 9.97947 4.55416 10.0151 5.08235 10.3196C5.61054 10.6241 5.96287 11.1611 6.032 11.7684L6.10467 12.4243C6.69773 12.5252 7.30367 12.5252 7.89673 12.4243L7.9694 11.7685C8.0366 11.1614 8.38853 10.6225 8.91733 10.3169C9.44613 10.0112 10.0888 9.97533 10.6485 10.2203L11.2515 10.4845C11.6327 10.0215 11.9361 9.49967 12.1498 8.93933L11.6178 8.5474C11.1253 8.18553 10.8344 7.6108 10.8344 6.99967C10.8344 6.38847 11.1253 5.81373 11.6172 5.45231L12.1485 5.06073C11.9347 4.50041 11.6312 3.97856 11.2499 3.51571L10.6522 3.77825C10.4087 3.88601 10.1452 3.94147 9.87914 3.94105C8.89933 3.94003 8.077 3.20237 7.97007 2.22922L7.89747 1.5778C7.60047 1.52947 7.30173 1.50341 7.00827 1.49993ZM6.9998 4.49997C8.38053 4.49997 9.4998 5.61925 9.4998 7C9.4998 8.38067 8.38053 9.5 6.9998 9.5C5.61909 9.5 4.4998 8.38067 4.4998 7C4.4998 5.61925 5.61909 4.49997 6.9998 4.49997ZM6.9998 5.49997C6.1714 5.49997 5.4998 6.17153 5.4998 7C5.4998 7.8284 6.1714 8.5 6.9998 8.5C7.8282 8.5 8.4998 7.8284 8.4998 7C8.4998 6.17153 7.8282 5.49997 6.9998 5.49997Z"
    fill="#319A64"
  />
</svg>
