<svg width="13" height="13" viewBox="0 0 13 13" fill="none" xmlns="http://www.w3.org/2000/svg">
<path d="M10.1676 0.665283C11.3229 0.665283 12.2671 1.5695 12.3309 2.70893L12.3343 2.83188L12.3339 10.8345C12.3337 12.031 11.3637 13.001 10.1671 13.001H2.16671C1.01134 13.001 0.0671734 12.0968 0.00342671 10.9574L0 10.8345L0.000400066 2.83189C0.000540066 1.63534 0.970547 0.665283 2.1671 0.665283H10.1676ZM5.66667 5.33195L1 5.33262L1.00007 10.8344L1.00485 10.9415C1.05893 11.5357 1.55843 12.001 2.16667 12.001L5.66667 12.0006V5.33195ZM11.3333 9.33192L6.66667 9.33258V12.0006L10.1671 12.001C10.8115 12.001 11.3338 11.4787 11.3339 10.8343L11.3333 9.33192ZM10.1676 1.66528L6.66667 1.66462V8.33258L11.3333 8.33192L11.3342 2.83193L11.3294 2.72478C11.2753 2.13064 10.7759 1.66528 10.1676 1.66528ZM5.66667 1.66462L2.16715 1.66528L2.07149 1.66916C1.4719 1.71787 1.00047 2.21988 1.0004 2.83197L1 4.33262L5.66667 4.33195V1.66462Z" fill="#667085"/>
</svg>
