<svg width="16" height="16" viewBox="0 0 16 16" fill="none" xmlns="http://www.w3.org/2000/svg">
<path d="M13.4997 3.33325C14.144 3.33325 14.6664 3.85559 14.6664 4.49989V6.00673C14.6664 6.26695 14.4669 6.48369 14.2075 6.50507C13.4338 6.56887 12.833 7.21812 12.833 7.99992C12.833 8.78172 13.4338 9.43098 14.2075 9.49478C14.4669 9.51618 14.6664 9.73292 14.6664 9.99312V11.4999C14.6664 12.1443 14.144 12.6666 13.4997 12.6666H2.49967C1.85534 12.6666 1.33301 12.1443 1.33301 11.4999L1.3332 9.99299C1.33323 9.73285 1.53277 9.51618 1.79205 9.49478C2.56569 9.43085 3.16634 8.78165 3.16634 7.99992C3.16634 7.21818 2.56569 6.56898 1.79205 6.50508C1.53277 6.48366 1.33323 6.26701 1.3332 6.00685L1.33301 4.49992C1.33301 3.85559 1.85534 3.33325 2.49967 3.33325H13.4997ZM13.6664 5.58975V4.49992C13.6664 4.40787 13.5917 4.33325 13.4997 4.33325H2.49967C2.40763 4.33325 2.33301 4.40787 2.33301 4.49985L2.33315 5.58981C3.39509 5.88263 4.16634 6.85592 4.16634 7.99992C4.16634 9.14392 3.39509 10.1172 2.33315 10.4101L2.33301 11.4999C2.33301 11.592 2.40763 11.6666 2.49967 11.6666H13.4997C13.5917 11.6666 13.6664 11.592 13.6664 11.4999V10.4101C12.6043 10.1173 11.833 9.14398 11.833 7.99992C11.833 6.90159 12.5439 5.96064 13.5404 5.62811L13.6664 5.58975Z" fill="white"/>
</svg>
