<?xml version="1.0" encoding="iso-8859-1"?>
<!-- Uploaded to: SVG Repo, www.svgrepo.com, Generator: SVG Repo Mixer Tools -->
<svg fill="#319A64" height="800px" width="800px" version="1.1" id="Capa_1" xmlns="http://www.w3.org/2000/svg" xmlns:xlink="http://www.w3.org/1999/xlink" 
	 viewBox="0 0 612 612" xml:space="preserve">
<g>
	<path d="M329.056,271.979h-46.109c-26.704,0-48.428,21.724-48.428,48.428v168.015h142.966V320.407
		C377.484,293.703,355.76,271.979,329.056,271.979z M342.021,364.907h-69.159c-7.865,0-14.244-6.378-14.244-14.244
		s6.378-14.244,14.244-14.244h69.159c7.865,0,14.244,6.378,14.244,14.244S349.886,364.907,342.021,364.907z M389.401,181.931V44.867
		C389.401,20.126,369.274,0,344.533,0h-77.067c-24.741,0-44.867,20.126-44.867,44.867v137.064
		c-42.993,22.183-72.474,67.019-72.474,118.641v234.601c0,20.172,16.411,36.583,36.583,36.583h2.886v26
		c0,7.865,6.378,14.244,14.244,14.244c7.865,0,14.244-6.378,14.244-14.244v-26h175.835v26c0,7.865,6.378,14.244,14.244,14.244
		s14.244-6.378,14.244-14.244v-26h2.889c20.172,0,36.583-16.411,36.583-36.583V300.572
		C461.878,248.953,432.394,204.117,389.401,181.931z M267.467,28.487h77.067c7.72,0,14.195,5.376,15.916,12.577H251.551
		C253.274,33.863,259.747,28.487,267.467,28.487z M251.087,69.552h109.827v101.597c-10.401-2.612-21.277-4.017-32.478-4.017h-44.87
		c-11.201,0-22.075,1.404-32.478,4.017V69.552z M220.275,516.91c-7.865,0-14.244-6.378-14.244-14.244V320.407
		c0-42.412,34.504-76.916,76.916-76.916h46.109c42.412,0,76.916,34.504,76.916,76.916v182.259c0,7.865-6.378,14.244-14.244,14.244
		H220.275z"/>
</g>
</svg>